<svg xmlns="http://www.w3.org/2000/svg" viewBox="0 0 512 512" role="img" aria-label="Lead Router">
  <defs>
    <linearGradient id="goldFace" x1="132" x2="390" y1="155" y2="326" gradientUnits="userSpaceOnUse">
      <stop offset="0" stop-color="#fff1af"/>
      <stop offset="0.23" stop-color="#e2b64c"/>
      <stop offset="0.52" stop-color="#aa741b"/>
      <stop offset="0.78" stop-color="#f3cd68"/>
      <stop offset="1" stop-color="#8b5a13"/>
    </linearGradient>
    <linearGradient id="goldEdge" x1="156" x2="376" y1="304" y2="376" gradientUnits="userSpaceOnUse">
      <stop offset="0" stop-color="#6e430d"/>
      <stop offset="0.45" stop-color="#8d5d16"/>
      <stop offset="1" stop-color="#d99d2f"/>
    </linearGradient>
    <filter id="shadow" x="-20%" y="-20%" width="140%" height="150%">
      <feDropShadow dx="0" dy="18" stdDeviation="16" flood-color="#05141b" flood-opacity="0.42"/>
    </filter>
  </defs>
  <rect width="512" height="512" rx="112" fill="#123849"/>
  <path d="M92 394c84 44 238 45 328 0" fill="none" stroke="#071f2b" stroke-width="34" stroke-linecap="round" opacity="0.28"/>
  <g filter="url(#shadow)">
    <path d="M128 234c0-24 19-43 43-43h122v-60l112 125-112 125v-60H171c-24 0-43-19-43-43Z" fill="url(#goldEdge)"/>
    <path d="M128 205c0-24 19-43 43-43h122v-60l112 125-112 125v-60H171c-24 0-43-19-43-43Z" fill="url(#goldFace)"/>
    <path d="M162 210c0-9 7-16 16-16h151v-33l57 66-57 66v-34H178c-9 0-16-7-16-16Z" fill="#fff7cf" opacity="0.2"/>
    <path d="M176 198h112" fill="none" stroke="#fff5c7" stroke-width="14" stroke-linecap="round" opacity="0.54"/>
    <path d="M332 190l34 37-34 37" fill="none" stroke="#fff4c6" stroke-width="12" stroke-linecap="round" stroke-linejoin="round" opacity="0.5"/>
  </g>
</svg>
